<?xml version="1.0" standalone="no"?>
<!DOCTYPE svg PUBLIC "-//W3C//DTD SVG 20010904//EN"
 "http://www.w3.org/TR/2001/REC-SVG-20010904/DTD/svg10.dtd">
<svg version="1.0" xmlns="http://www.w3.org/2000/svg"
 width="700.000000pt" height="523.000000pt" viewBox="0 0 700.000000 523.000000"
 preserveAspectRatio="xMidYMid meet">

<g transform="translate(0.000000,523.000000) scale(0.100000,-0.100000)"
fill="#000000" stroke="none">
<path d="M737 4916 c-110 -46 -189 -133 -221 -246 -15 -50 -16 -218 -14 -1670
l3 -1615 28 -60 c37 -79 114 -156 191 -192 l61 -28 1053 -3 1052 -2 0 -184 0
-184 -135 -4 c-131 -3 -135 -4 -162 -31 -39 -38 -39 -99 0 -133 l28 -24 875 0
c581 0 882 3 895 10 28 16 51 67 44 99 -3 16 -17 39 -31 52 -24 22 -35 24
-160 27 l-133 4 -3 141 -3 141 -71 12 c-38 6 -80 15 -92 18 l-22 7 0 -160 0
-161 -420 0 -420 0 0 185 0 185 338 0 337 0 -85 43 c-231 117 -423 294 -546
505 l-37 62 -1198 0 -1199 0 0 1450 c0 1196 2 1456 14 1483 17 43 76 93 123
106 53 15 5293 15 5346 0 47 -13 106 -63 123 -106 12 -27 14 -287 14 -1483 l0
-1450 -278 -2 -278 -3 214 -205 c118 -113 247 -236 288 -273 l74 -68 50 47
c30 28 63 73 83 113 l32 66 3 1614 c2 1454 1 1620 -14 1670 -33 115 -119 209
-229 250 l-56 21 -2702 0 -2702 0 -58 -24z"/>
<path d="M2192 4420 c-112 -30 -187 -74 -278 -165 -92 -91 -144 -184 -169
-302 -81 -382 208 -743 595 -743 l81 0 82 86 c44 47 120 115 168 151 l86 64
-25 77 c-20 61 -26 104 -30 208 -5 152 14 247 72 371 l34 72 -41 38 c-62 57
-138 102 -219 131 -101 35 -252 40 -356 12z"/>
<path d="M3375 4425 c-228 -50 -404 -214 -471 -440 -27 -89 -25 -239 5 -335
50 -166 164 -302 318 -379 34 -17 67 -31 73 -31 6 0 45 30 86 66 173 151 378
251 614 301 l84 18 14 45 c18 59 20 220 3 290 -77 324 -407 535 -726 465z"/>
<path d="M4550 4433 c-106 -18 -228 -76 -309 -149 l-50 -45 35 -72 c58 -124
77 -219 72 -371 -3 -72 -8 -139 -13 -148 -6 -15 -2 -18 25 -18 18 0 80 -7 139
-16 183 -27 378 -103 536 -209 l70 -47 50 54 c103 110 158 256 157 418 -1 281
-190 519 -468 590 -71 18 -178 24 -244 13z"/>
<path d="M4036 3425 c-457 -94 -806 -448 -892 -902 -25 -132 -15 -365 20 -493
55 -197 157 -369 303 -511 223 -217 474 -319 783 -319 192 0 338 33 498 114
l73 37 37 -30 c20 -16 65 -58 100 -93 59 -60 62 -66 52 -92 -15 -40 -12 -86 9
-132 13 -29 133 -150 436 -440 229 -219 434 -409 454 -421 26 -17 51 -23 91
-23 39 0 65 6 92 23 54 33 383 406 398 452 17 50 7 119 -21 158 -20 28 -227
227 -789 762 -99 95 -146 114 -225 94 l-44 -11 -89 83 -89 83 33 71 c75 164
106 308 106 490 0 516 -339 949 -851 1087 -100 27 -381 35 -485 13z m354 -180
c205 -30 376 -118 525 -270 107 -108 174 -215 221 -353 115 -335 33 -698 -216
-953 -133 -136 -272 -215 -457 -261 -130 -32 -313 -30 -446 5 -537 141 -836
708 -647 1229 87 241 292 452 532 547 159 64 318 82 488 56z m870 -1802 c-9
-12 -40 -47 -67 -77 l-50 -54 -81 74 -80 74 71 74 72 73 76 -71 c75 -70 76
-71 59 -93z"/>
<path d="M4210 3062 c0 -5 12 -19 26 -33 73 -69 171 -231 214 -354 44 -125 68
-293 56 -389 l-7 -56 -495 0 -494 0 0 -22 c0 -13 10 -56 21 -95 l22 -73 494 0
c545 0 534 -1 590 63 44 50 55 99 55 246 0 204 -40 362 -137 549 -68 132 -76
140 -168 157 -86 16 -177 20 -177 7z"/>
<path d="M1631 3294 c-185 -139 -336 -349 -410 -570 -48 -145 -64 -249 -59
-409 4 -158 12 -183 81 -239 l39 -31 444 -3 c244 -1 444 -1 444 0 0 2 -9 27
-20 56 -11 29 -20 63 -20 76 0 59 22 56 -395 56 l-382 0 -7 58 c-8 73 8 223
35 322 39 143 122 295 225 409 43 48 162 148 208 176 14 9 8 19 -47 78 -35 37
-66 67 -69 67 -3 0 -33 -21 -67 -46z"/>
<path d="M2779 3293 c-170 -124 -330 -341 -401 -543 -47 -135 -60 -204 -65
-365 -6 -183 2 -227 50 -282 53 -60 68 -63 352 -63 240 0 256 1 251 18 -5 15
-25 146 -26 165 0 4 -99 7 -219 7 l-220 0 -7 58 c-9 77 11 245 42 346 34 106
92 223 155 307 57 77 177 193 243 235 l44 28 -62 68 c-33 37 -64 68 -67 68 -4
0 -35 -21 -70 -47z"/>
<path d="M5245 3285 l-47 -55 44 -53 c25 -28 79 -86 120 -127 166 -167 261
-369 288 -609 6 -52 8 -121 4 -153 l-7 -58 -43 0 c-24 0 -44 -3 -44 -7 -1 -20
-21 -150 -26 -166 -6 -18 0 -19 89 -15 89 3 98 5 134 34 67 55 77 82 81 226 3
70 -1 164 -8 209 -37 254 -158 496 -341 678 -63 63 -173 151 -189 151 -5 0
-30 -25 -55 -55z"/>
</g>
</svg>
