<?xml version="1.0" standalone="no"?>
<!DOCTYPE svg PUBLIC "-//W3C//DTD SVG 20010904//EN"
 "http://www.w3.org/TR/2001/REC-SVG-20010904/DTD/svg10.dtd">
<svg version="1.0" xmlns="http://www.w3.org/2000/svg"
 width="379.000000pt" height="460.000000pt" viewBox="0 0 379.000000 460.000000"
 preserveAspectRatio="xMidYMid meet">
<metadata>
Created by potrace 1.16, written by Peter Selinger 2001-2019
</metadata>
<g transform="translate(0.000000,460.000000) scale(0.100000,-0.100000)"
fill="#000000" stroke="none">
<path d="M360 4428 c-77 -30 -169 -123 -198 -201 l-22 -58 0 -1879 0 -1879 22
-58 c29 -80 121 -172 201 -201 57 -22 69 -22 598 -22 608 0 584 -3 614 73 23
57 2 131 -43 154 -9 4 -253 10 -542 13 -577 5 -557 3 -591 67 -21 39 -21 3667
0 3706 34 64 14 62 591 67 583 6 557 2 585 74 25 61 2 131 -51 154 -18 9 -178
12 -567 11 -527 0 -544 -1 -597 -21z"/>
<path d="M2603 3365 c-58 -25 -86 -96 -60 -156 8 -19 163 -204 346 -412 182
-208 331 -380 331 -383 0 -2 -488 -4 -1085 -4 -759 0 -1092 -3 -1106 -10 -51
-28 -74 -113 -45 -169 31 -60 -47 -56 1144 -61 l1095 -5 -331 -378 c-182 -207
-336 -386 -342 -396 -5 -11 -10 -41 -10 -66 0 -40 5 -52 34 -81 30 -30 40 -34
86 -34 47 0 55 4 95 42 24 24 226 252 450 508 275 315 408 476 415 498 6 23 5
45 -3 69 -16 47 -859 1015 -904 1037 -38 19 -68 20 -110 1z"/>
</g>
</svg>
