<?xml version="1.0" standalone="no"?>
<!DOCTYPE svg PUBLIC "-//W3C//DTD SVG 20010904//EN"
 "http://www.w3.org/TR/2001/REC-SVG-20010904/DTD/svg10.dtd">
<svg version="1.0" xmlns="http://www.w3.org/2000/svg"
 width="370.000000pt" height="267.000000pt" viewBox="0 0 370.000000 267.000000"
 preserveAspectRatio="xMidYMid meet">

<g transform="translate(0.000000,267.000000) scale(0.100000,-0.100000)"
fill="#000000" stroke="none">
<path d="M84 2640 c-11 -4 -33 -22 -47 -40 -47 -56 -30 -152 33 -185 26 -13
234 -15 1780 -15 l1750 0 38 34 c34 32 37 39 37 90 0 49 -4 59 -33 88 l-32 33
-1753 2 c-963 1 -1761 -2 -1773 -7z"/>
<path d="M68 1424 c-36 -19 -58 -63 -58 -114 0 -32 7 -48 34 -78 l34 -37 1749
-3 c1247 -2 1756 1 1775 9 92 38 103 172 19 222 -27 16 -147 17 -1778 17
-1527 -1 -1751 -3 -1775 -16z"/>
<path d="M84 266 c-17 -8 -40 -26 -52 -41 -47 -60 -15 -167 58 -192 27 -9 449
-12 1755 -12 1669 -1 1721 0 1762 18 97 45 96 186 -2 227 -50 20 -3473 21
-3521 0z"/>
</g>
</svg>
