<?xml version="1.0" standalone="no"?>
<!DOCTYPE svg PUBLIC "-//W3C//DTD SVG 20010904//EN"
 "http://www.w3.org/TR/2001/REC-SVG-20010904/DTD/svg10.dtd">
<svg version="1.0" xmlns="http://www.w3.org/2000/svg"
 width="343.000000pt" height="346.000000pt" viewBox="0 0 343.000000 346.000000"
 preserveAspectRatio="xMidYMid meet">

<g transform="translate(0.000000,346.000000) scale(0.100000,-0.100000)"
fill="#000000" stroke="none">
<path d="M1185 3305 c-451 -70 -829 -373 -990 -790 -57 -149 -76 -243 -82
-411 -4 -118 -2 -175 12 -255 68 -411 327 -756 705 -939 167 -80 346 -120 545
-120 147 0 265 19 402 65 122 41 193 76 303 149 46 31 86 56 89 56 3 0 215
-209 471 -464 518 -517 495 -500 584 -456 33 16 50 32 65 64 41 83 57 63 -461
582 l-470 471 47 64 c66 90 159 287 189 399 97 366 35 734 -177 1050 -64 96
-231 263 -327 327 -271 181 -598 257 -905 208z m456 -289 c119 -35 188 -67
287 -132 217 -145 370 -373 424 -633 28 -136 21 -337 -16 -466 -102 -351 -368
-609 -721 -701 -84 -22 -122 -26 -235 -26 -287 -1 -511 91 -711 291 -146 146
-231 302 -276 506 -19 86 -21 297 -4 380 43 207 135 381 280 526 150 150 318
236 551 283 14 2 95 3 180 1 132 -2 168 -7 241 -29z"/>
</g>
</svg>
