<?xml version="1.0" standalone="no"?>
<!DOCTYPE svg PUBLIC "-//W3C//DTD SVG 20010904//EN"
 "http://www.w3.org/TR/2001/REC-SVG-20010904/DTD/svg10.dtd">
<svg version="1.0" xmlns="http://www.w3.org/2000/svg"
 width="439.000000pt" height="433.000000pt" viewBox="0 0 439.000000 433.000000"
 preserveAspectRatio="xMidYMid meet">

<g transform="translate(0.000000,433.000000) scale(0.100000,-0.100000)"
fill="#000000" stroke="none">
<path d="M872 4199 c-172 -29 -320 -107 -452 -239 -135 -135 -210 -279 -239
-460 -15 -90 -15 -2570 0 -2660 29 -181 104 -325 239 -460 135 -135 279 -210
460 -239 90 -15 2570 -15 2660 0 181 29 325 104 460 239 135 135 210 279 239
460 15 90 15 2570 0 2660 -29 181 -104 325 -239 460 -135 135 -279 210 -460
239 -81 13 -2590 13 -2668 0z m2682 -249 c113 -29 190 -73 276 -160 87 -86
131 -163 160 -276 19 -75 20 -115 20 -1344 0 -1229 -1 -1269 -20 -1344 -29
-113 -73 -190 -160 -276 -86 -87 -163 -131 -276 -160 -75 -19 -115 -20 -1344
-20 -1229 0 -1269 1 -1344 20 -113 29 -190 73 -276 160 -87 86 -131 163 -160
276 -19 75 -20 115 -20 1338 0 1070 3 1272 15 1331 47 223 234 412 455 459 54
12 285 15 1331 15 1229 1 1268 0 1343 -19z"/>
<path d="M2165 3241 c-45 -20 -70 -60 -70 -112 0 -42 5 -53 33 -81 28 -28 39
-33 82 -33 43 0 54 5 82 33 28 28 33 39 33 82 0 42 -5 54 -31 81 -33 33 -92
46 -129 30z"/>
<path d="M2045 2761 c-74 -32 -96 -133 -41 -190 16 -16 42 -33 57 -36 l29 -7
2 -684 3 -684 33 -32 c28 -28 39 -33 82 -33 43 0 54 5 82 33 l33 32 0 770 0
770 -33 32 c-32 32 -34 33 -130 35 -53 2 -106 -1 -117 -6z"/>
</g>
</svg>
