<?xml version="1.0" standalone="no"?>
<!DOCTYPE svg PUBLIC "-//W3C//DTD SVG 20010904//EN"
 "http://www.w3.org/TR/2001/REC-SVG-20010904/DTD/svg10.dtd">
<svg version="1.0" xmlns="http://www.w3.org/2000/svg"
 width="451.000000pt" height="262.000000pt" viewBox="0 0 451.000000 262.000000"
 preserveAspectRatio="xMidYMid meet">

<g transform="translate(0.000000,262.000000) scale(0.100000,-0.100000)"
fill="#000000" stroke="none">
<path d="M727 2459 c-35 -20 -47 -64 -47 -168 0 -55 5 -111 11 -125 26 -56 30
-56 611 -56 l534 0 173 -607 c96 -335 176 -616 179 -626 4 -15 -4 -17 -79 -17
l-84 0 -170 551 c-93 304 -176 558 -183 565 -11 11 -70 14 -298 14 -391 0
-369 14 -485 -302 l-77 -213 -333 -97 c-183 -53 -344 -105 -357 -115 -14 -11
-35 -32 -46 -47 -20 -26 -21 -40 -21 -331 0 -291 1 -305 21 -331 44 -60 67
-69 187 -74 l112 -5 7 -43 c18 -107 117 -240 216 -291 251 -128 549 1 618 269
l18 70 976 0 976 0 12 -58 c26 -125 137 -254 260 -302 113 -43 253 -35 364 21
60 31 150 124 182 190 126 259 -36 563 -325 610 -97 16 -217 -10 -291 -63 -23
-16 -41 -18 -114 -16 l-86 3 569 400 c312 220 578 410 591 422 22 22 22 23 22
363 0 363 -3 385 -49 410 -27 14 -3569 13 -3594 -1z m3543 -397 l0 -319 -627
-441 -627 -442 -361 0 -362 0 -188 658 c-135 473 -193 662 -208 675 -18 16
-59 17 -568 17 l-549 0 0 85 0 85 1745 0 1745 0 0 -318z m-2463 -821 c111
-360 203 -656 203 -658 0 -2 -175 -3 -390 -3 l-389 0 -12 43 c-55 209 -275
354 -482 318 -169 -30 -324 -172 -352 -324 l-7 -37 -102 0 c-66 0 -106 4 -114
12 -9 9 -12 87 -12 288 0 274 0 277 22 297 15 13 112 46 273 93 138 39 293 85
347 101 l96 29 30 83 c16 45 51 143 78 217 47 134 70 174 109 191 11 4 128 7
259 6 l239 -2 204 -654z m-866 -419 c73 -36 125 -87 161 -159 60 -123 40 -265
-52 -367 -117 -127 -300 -146 -445 -46 -126 86 -173 278 -102 416 33 64 112
137 180 164 70 27 192 24 258 -8z m2796 6 c80 -29 162 -112 192 -193 59 -155
-14 -342 -160 -413 -189 -92 -410 2 -470 200 -28 90 -21 159 24 247 77 153
252 220 414 159z m-495 -100 c-11 -18 -28 -59 -37 -90 l-16 -58 -538 0 -537 0
-27 83 c-15 46 -27 86 -27 90 0 4 270 7 601 7 l601 0 -20 -32z"/>
<path d="M715 703 c-98 -51 -143 -168 -102 -266 27 -64 121 -127 191 -127 39
0 98 24 135 57 108 92 88 263 -38 330 -53 28 -140 31 -186 6z m168 -113 c41
-45 38 -101 -7 -146 -36 -36 -71 -43 -120 -24 -30 11 -66 65 -66 98 0 98 127
145 193 72z"/>
<path d="M3519 697 c-126 -67 -146 -238 -38 -330 86 -74 189 -73 271 1 50 45
68 85 68 152 0 153 -163 249 -301 177z m146 -83 c20 -9 40 -30 50 -50 53 -113
-96 -209 -181 -117 -46 49 -23 148 40 173 32 13 55 12 91 -6z"/>
</g>
</svg>
