<?xml version="1.0" standalone="no"?>
<!DOCTYPE svg PUBLIC "-//W3C//DTD SVG 20010904//EN"
 "http://www.w3.org/TR/2001/REC-SVG-20010904/DTD/svg10.dtd">
<svg version="1.0" xmlns="http://www.w3.org/2000/svg"
 width="631.000000pt" height="604.000000pt" viewBox="0 0 631.000000 604.000000"
 preserveAspectRatio="xMidYMid meet">
<metadata>
Created by potrace 1.16, written by Peter Selinger 2001-2019
</metadata>
<g transform="translate(0.000000,604.000000) scale(0.100000,-0.100000)"
fill="#000000" stroke="none">
<path d="M540 6021 c-144 -46 -269 -147 -333 -269 -73 -139 -67 41 -67 -2147
0 -2174 -4 -2022 63 -2149 44 -85 155 -193 238 -233 137 -67 -15 -63 2249 -63
l2055 0 550 -549 c302 -303 563 -555 578 -560 40 -15 133 -13 165 3 31 16 74
61 91 93 8 16 11 747 11 2728 l0 2706 -25 76 c-59 174 -184 299 -358 358 l-76
25 -2543 -1 c-2404 0 -2546 -1 -2598 -18z m1207 -2066 c213 -63 322 -311 224
-510 -64 -130 -188 -208 -331 -208 -246 0 -423 236 -352 469 61 197 263 307
459 249z m1498 1 c164 -50 277 -217 261 -385 -12 -134 -109 -264 -234 -312
-127 -50 -274 -22 -377 72 -209 192 -139 528 130 621 61 21 156 23 220 4z
m1502 -1 c213 -63 322 -311 224 -510 -64 -130 -188 -208 -331 -208 -246 0
-423 236 -352 469 61 197 263 307 459 249z"/>
</g>
</svg>
