<?xml version="1.0" standalone="no"?>
<!DOCTYPE svg PUBLIC "-//W3C//DTD SVG 20010904//EN"
 "http://www.w3.org/TR/2001/REC-SVG-20010904/DTD/svg10.dtd">
<svg version="1.0" xmlns="http://www.w3.org/2000/svg"
 width="700.000000pt" height="700.000000pt" viewBox="0 0 700.000000 700.000000"
 preserveAspectRatio="xMidYMid meet">

<g transform="translate(0.000000,700.000000) scale(0.100000,-0.100000)"
fill="#000000" stroke="none">
<path d="M2307 6058 c-12 -13 -135 -160 -272 -326 -225 -274 -252 -303 -275
-299 -14 2 -97 25 -184 51 -178 51 -195 53 -225 29 -15 -13 -107 -250 -311
-805 -160 -433 -290 -798 -290 -811 0 -45 22 -56 195 -106 407 -118 619 -206
1295 -541 294 -146 598 -292 675 -324 302 -124 617 -217 920 -271 176 -31 220
-30 247 6 11 14 121 300 244 635 332 900 364 988 364 1006 0 9 -9 26 -21 39
l-21 24 16 -25 c16 -24 22 -70 10 -70 -3 0 -13 9 -22 20 -13 16 -49 26 -157
45 -77 14 -142 25 -145 26 -23 3 56 20 118 25 143 12 229 -18 392 -139 169
-124 310 -177 532 -199 135 -13 288 -1 423 33 97 25 115 34 115 59 0 10 4 22
10 25 12 7 13 52 2 59 -5 3 -7 -7 -4 -23 3 -25 1 -27 -35 -27 -21 -1 -81 -11
-133 -22 -239 -55 -524 -32 -711 57 -36 17 -107 62 -159 102 -167 125 -276
166 -410 155 -41 -3 -133 -17 -204 -31 -306 -61 -415 -77 -561 -82 -121 -5
-161 -3 -206 10 -114 33 -176 110 -185 226 l-4 56 21 -62 c12 -34 35 -76 51
-95 l29 -33 -24 35 c-26 37 -57 118 -57 150 0 10 6 22 13 27 6 4 134 13 282
19 429 19 511 38 1035 233 401 150 370 137 370 160 0 11 5 23 10 26 12 7 13
52 2 59 -5 3 -7 -7 -4 -22 3 -26 1 -27 -40 -28 -30 0 -147 -40 -379 -127 -357
-135 -506 -178 -683 -201 l-110 -13 -405 407 c-460 461 -626 606 -950 829
-114 78 -147 86 -184 49z m141 -110 c183 -123 374 -274 581 -461 106 -96 714
-708 708 -713 -1 -1 -34 -4 -73 -8 l-70 -7 -104 108 c-189 196 -413 417 -515
507 -107 95 -283 229 -340 260 l-36 19 -32 -31 c-77 -74 -196 -93 -295 -47
-62 29 -45 40 -176 -118 -49 -59 -93 -107 -98 -107 -15 0 -138 45 -138 50 0 5
125 158 402 493 49 59 93 107 99 107 5 0 45 -23 87 -52z m248 -444 c44 -31
117 -88 164 -127 86 -71 620 -595 620 -608 0 -4 -21 -9 -47 -11 -27 -3 -68
-10 -93 -18 l-45 -13 -435 219 c-239 121 -511 253 -605 293 -93 41 -172 75
-174 77 -2 2 23 35 55 75 33 39 66 80 75 92 16 20 18 20 76 4 33 -10 80 -17
106 -17 55 0 148 33 185 66 15 13 30 24 33 24 4 0 42 -25 85 -56z m-1140 -93
c407 -116 675 -229 1310 -552 l391 -199 5 -68 c10 -138 85 -245 207 -294 51
-21 71 -23 226 -22 135 1 199 6 311 27 l142 25 82 -19 c45 -11 143 -31 218
-44 75 -14 138 -27 140 -30 3 -2 -121 -345 -275 -762 l-280 -758 -66 2 c-82 3
-329 51 -499 98 -345 96 -607 205 -1173 491 -446 225 -637 314 -855 399 -158
62 -409 144 -530 175 -47 12 -86 23 -88 25 -2 1 4 20 13 41 9 22 135 361 280
754 145 393 267 723 270 733 4 9 13 17 20 17 7 0 75 -18 151 -39z"/>
<path d="M2710 5646 c0 -2 8 -10 18 -17 15 -13 16 -12 3 4 -13 16 -21 21 -21
13z"/>
<path d="M2780 5596 c0 -2 8 -10 18 -17 15 -13 16 -12 3 4 -13 16 -21 21 -21
13z"/>
<path d="M2835 5550 c10 -11 20 -20 23 -20 3 0 -3 9 -13 20 -10 11 -20 20 -23
20 -3 0 3 -9 13 -20z"/>
<path d="M2885 5510 c10 -11 20 -20 23 -20 3 0 -3 9 -13 20 -10 11 -20 20 -23
20 -3 0 3 -9 13 -20z"/>
<path d="M2950 5455 c19 -19 36 -35 39 -35 3 0 -10 16 -29 35 -19 19 -36 35
-39 35 -3 0 10 -16 29 -35z"/>
<path d="M3055 5360 c33 -33 62 -60 64 -60 3 0 -21 27 -54 60 -33 33 -62 60
-64 60 -3 0 21 -27 54 -60z"/>
<path d="M3260 5166 c259 -270 330 -343 330 -337 0 3 -103 110 -228 237 -125
127 -171 172 -102 100z"/>
<path d="M1733 5188 c-5 -7 -15 -26 -23 -42 -42 -83 -120 -125 -231 -126 -49
0 -80 -5 -87 -12 -21 -27 -263 -693 -260 -717 2 -18 10 -27 26 -29 27 -4 20
-21 167 373 l113 300 68 6 c108 9 197 58 245 135 20 34 24 36 60 30 139 -22
444 -149 844 -350 352 -177 388 -205 424 -321 90 -291 -108 -688 -416 -836
-71 -34 -83 -43 -83 -65 0 -50 53 -42 172 27 135 79 257 216 333 374 84 173
111 293 102 451 -5 84 -3 103 9 108 8 3 14 14 14 25 0 11 5 23 10 26 12 7 13
52 2 59 -5 3 -6 -9 -4 -26 3 -17 0 -29 -5 -27 -5 2 -162 83 -349 181 -501 261
-733 364 -976 433 -134 39 -142 40 -155 23z m1432 -705 c4 -10 9 -70 11 -133
l3 -115 -9 90 c-4 50 -15 109 -23 133 -11 33 -12 42 -2 42 7 0 16 -8 20 -17z"/>
<path d="M2678 4679 c4 -30 -6 -37 -25 -18 -17 17 -142 -45 -223 -110 -232
-185 -366 -499 -320 -747 7 -38 19 -82 27 -97 8 -16 13 -31 10 -33 -2 -3 -89
37 -193 89 -314 154 -653 286 -748 290 -36 2 -41 -1 -44 -21 -5 -32 12 -49 56
-57 63 -12 271 -85 414 -146 165 -71 478 -226 798 -397 330 -176 681 -348 839
-410 133 -53 355 -122 392 -122 12 0 26 14 38 39 11 21 34 53 52 70 52 53 86
65 178 67 55 1 88 6 96 15 7 8 70 167 139 354 70 187 131 350 136 363 15 34
12 58 -7 73 -15 11 -16 11 -5 -1 12 -14 17 -60 7 -60 -3 0 -14 6 -25 12 -14 9
-23 9 -30 2 -7 -7 -67 -159 -135 -340 l-123 -329 -69 -7 c-37 -3 -84 -13 -103
-21 -55 -24 -118 -74 -142 -113 -22 -33 -26 -35 -64 -30 -57 7 -234 67 -377
127 -292 123 -879 428 -945 493 -73 70 -114 184 -111 309 1 34 4 49 6 32 17
-149 50 -229 120 -295 l47 -45 -47 52 c-80 88 -115 204 -104 339 14 156 82
292 216 425 69 68 105 95 174 129 61 30 87 49 87 61 0 10 5 21 10 24 12 7 13
52 2 59 -5 3 -6 -8 -4 -25z"/>
<path d="M2952 4455 c2 -5 12 -28 22 -49 22 -50 40 -156 28 -168 -6 -6 -11 9
-14 35 -6 54 -45 137 -63 137 -24 0 -26 -18 -5 -57 31 -60 41 -132 28 -205
-15 -87 -15 -100 -1 -105 18 -6 52 77 63 154 13 92 -6 192 -46 246 -9 12 -14
18 -12 12z"/>
<path d="M2338 4138 c-2 -15 -11 -24 -25 -26 -28 -4 -38 -46 -38 -157 0 -62 6
-92 23 -130 25 -55 58 -95 79 -95 18 0 16 35 -3 51 -34 28 -57 93 -60 169 -3
74 -3 75 6 22 11 -57 32 -105 60 -137 10 -11 20 -29 23 -40 4 -19 5 -19 6 1 0
12 -6 27 -15 35 -50 42 -75 157 -55 260 7 33 10 63 8 66 -3 3 -7 -6 -9 -19z"/>
<path d="M2610 5986 c0 -2 8 -10 18 -17 15 -13 16 -12 3 4 -13 16 -21 21 -21
13z"/>
<path d="M2690 5926 c0 -2 8 -10 18 -17 15 -13 16 -12 3 4 -13 16 -21 21 -21
13z"/>
<path d="M2730 5896 c0 -2 8 -10 18 -17 15 -13 16 -12 3 4 -13 16 -21 21 -21
13z"/>
<path d="M2785 5850 c10 -11 20 -20 23 -20 3 0 -3 9 -13 20 -10 11 -20 20 -23
20 -3 0 3 -9 13 -20z"/>
<path d="M2835 5810 c10 -11 20 -20 23 -20 3 0 -3 9 -13 20 -10 11 -20 20 -23
20 -3 0 3 -9 13 -20z"/>
<path d="M2890 5765 c13 -14 26 -25 28 -25 3 0 -5 11 -18 25 -13 14 -26 25
-28 25 -3 0 5 -11 18 -25z"/>
<path d="M2930 5737 c0 -2 15 -16 33 -33 l32 -29 -29 33 c-28 30 -36 37 -36
29z"/>
<path d="M4510 5692 c-77 -26 -64 -18 -488 -295 -355 -232 -383 -252 -380
-276 2 -18 10 -27 24 -29 14 -2 143 77 375 229 439 289 468 304 563 304 90 0
113 -11 417 -192 440 -262 668 -375 863 -429 124 -34 305 -43 436 -20 129 22
125 21 145 72 17 44 17 47 -1 62 -17 16 -17 16 -5 0 18 -24 7 -51 -18 -43 -11
3 -59 -1 -108 -10 -48 -8 -134 -15 -190 -15 -273 0 -482 87 -1138 479 -115 69
-236 135 -267 148 -79 32 -159 38 -228 15z"/>
<path d="M3045 5630 c27 -27 51 -50 54 -50 3 0 -17 23 -44 50 -27 28 -51 50
-54 50 -3 0 17 -22 44 -50z"/>
<path d="M3420 5265 c172 -176 341 -347 374 -380 33 -33 -13 17 -101 110 -89
94 -257 265 -375 380 -146 144 -114 110 102 -110z"/>
<path d="M6353 4941 c0 -11 5 -18 9 -15 4 3 5 11 1 19 -7 21 -12 19 -10 -4z"/>
<path d="M6220 4900 c-30 -5 -79 -8 -107 -9 -46 -1 -53 -4 -53 -21 0 -31 21
-34 148 -21 118 12 145 21 135 47 -6 15 -33 16 -123 4z"/>
<path d="M4840 4416 c0 -2 8 -10 18 -17 15 -13 16 -12 3 4 -13 16 -21 21 -21
13z"/>
<path d="M4880 4386 c0 -2 8 -10 18 -17 15 -13 16 -12 3 4 -13 16 -21 21 -21
13z"/>
<path d="M4920 4356 c0 -2 8 -10 18 -17 15 -13 16 -12 3 4 -13 16 -21 21 -21
13z"/>
<path d="M4960 4326 c0 -2 8 -10 18 -17 15 -13 16 -12 3 4 -13 16 -21 21 -21
13z"/>
<path d="M6380 4051 c14 -27 3 -56 -16 -40 -22 18 -199 -13 -474 -81 -337 -84
-394 -93 -580 -87 -191 6 -253 22 -438 113 -108 53 -136 63 -147 54 -23 -19
-18 -48 12 -67 14 -10 60 -36 102 -58 81 -43 100 -68 87 -118 -3 -14 -155
-208 -336 -432 -182 -223 -330 -414 -330 -424 0 -25 25 -45 43 -34 29 17 670
816 689 859 11 25 17 52 14 59 -5 15 -1 15 91 -9 136 -35 321 -38 493 -6 36 6
173 38 305 71 132 33 283 66 335 74 52 9 104 17 116 20 28 6 58 80 43 106 -5
11 -12 19 -15 19 -2 0 0 -9 6 -19z"/>
<path d="M561 2672 c-6 -11 -8 -27 -5 -36 11 -29 251 -95 347 -96 27 0 92 11
145 24 374 94 662 41 1039 -190 237 -145 291 -155 568 -100 246 48 341 59 464
54 213 -10 306 -79 342 -254 16 -77 7 -109 -34 -130 -26 -14 -80 -18 -302 -25
-277 -8 -365 -18 -503 -61 -69 -21 -667 -273 -689 -291 -20 -15 -16 -55 6 -62
12 -3 93 26 218 80 l200 85 64 -14 c136 -31 274 -41 564 -40 301 0 430 12 540
49 26 9 154 67 284 127 492 230 653 291 827 312 98 12 200 -27 177 -68 -11
-20 -1000 -709 -1063 -740 -75 -38 -127 -52 -630 -161 -267 -58 -516 -114
-555 -124 -86 -24 -143 -26 -220 -6 -32 9 -257 94 -499 189 -626 247 -927 353
-1181 417 -90 23 -115 18 -115 -21 0 -27 16 -34 135 -65 246 -62 561 -174
1193 -424 211 -84 418 -161 460 -172 92 -24 152 -21 280 16 48 13 297 69 554
124 284 61 496 112 543 130 84 32 120 56 720 474 401 279 421 294 444 342 35
72 32 119 -10 159 l-34 31 27 -30 c29 -34 43 -83 28 -105 -8 -12 -10 -11 -10
6 0 26 -57 81 -92 89 -33 8 -33 12 -12 64 19 47 8 96 -28 127 l-22 19 21 -28
c24 -31 38 -81 28 -97 -4 -7 -14 3 -23 22 -10 19 -35 43 -62 58 -41 23 -55 25
-151 24 l-107 -2 -6 38 c-4 25 -16 47 -36 64 -110 92 -313 5 -685 -293 -83
-66 -153 -121 -156 -121 -4 0 -14 30 -23 68 -48 191 -173 286 -397 299 -117 7
-236 -7 -469 -54 -270 -54 -319 -46 -546 92 -392 238 -678 291 -1068 198 -132
-31 -205 -28 -341 13 -131 39 -132 39 -144 16z m3784 -276 c16 -12 18 -19 10
-42 -9 -25 -23 -33 -105 -60 -107 -35 -246 -91 -399 -159 -57 -25 -105 -44
-108 -42 -6 6 178 145 280 211 48 32 113 68 145 81 65 27 148 32 177 11z m304
-132 c22 -8 42 -23 45 -31 10 -24 -23 -53 -60 -53 -56 0 -253 -56 -389 -111
-123 -49 -182 -76 -555 -249 -176 -82 -256 -105 -420 -120 -211 -19 -648 -8
-755 19 -29 7 -27 8 40 34 168 64 294 83 630 93 254 7 204 -7 560 157 538 247
772 314 904 261z"/>
<path d="M4407 2500 c13 -14 27 -44 33 -65 l10 -40 -5 39 c-3 27 -14 48 -32
65 l-27 26 21 -25z"/>
<path d="M594 2495 c-9 -23 1 -30 96 -60 94 -30 170 -37 177 -18 5 15 -14 23
-137 56 -52 14 -103 29 -112 32 -12 5 -20 1 -24 -10z"/>
<path d="M874 2470 c0 -13 4 -16 10 -10 7 7 7 13 0 20 -6 6 -10 3 -10 -10z"/>
<path d="M3446 2340 c42 -46 69 -103 90 -184 9 -37 19 -65 21 -62 8 7 -28 129
-52 175 -13 25 -38 59 -57 76 l-33 30 31 -35z"/>
<path d="M558 423 c7 -3 16 -2 19 1 4 3 -2 6 -13 5 -11 0 -14 -3 -6 -6z"/>
</g>
</svg>
