<?xml version="1.0" standalone="no"?>
<!DOCTYPE svg PUBLIC "-//W3C//DTD SVG 20010904//EN"
 "http://www.w3.org/TR/2001/REC-SVG-20010904/DTD/svg10.dtd">
<svg version="1.0" xmlns="http://www.w3.org/2000/svg"
 width="400.000000pt" height="361.000000pt" viewBox="0 0 400.000000 361.000000"
 preserveAspectRatio="xMidYMid meet">

<g transform="translate(0.000000,361.000000) scale(0.100000,-0.100000)"
fill="#000000" stroke="none">
<path d="M1930 3484 c-186 -29 -310 -102 -399 -235 -22 -33 -50 -87 -62 -120
l-22 -59 -574 0 c-619 0 -610 1 -647 -52 -21 -29 -21 -107 0 -136 37 -53 28
-52 647 -52 l574 0 22 -59 c12 -33 40 -87 62 -120 158 -237 488 -306 725 -153
106 69 191 179 224 289 l13 43 588 2 589 3 32 33 c28 28 33 39 33 82 0 43 -5
54 -33 82 l-32 33 -589 3 -588 2 -13 43 c-46 156 -193 301 -350 347 -68 20
-158 30 -200 24z m160 -266 c143 -61 214 -242 151 -383 -88 -199 -348 -241
-490 -79 -94 107 -96 276 -5 383 88 102 220 133 344 79z"/>
<path d="M1030 2340 c-203 -26 -383 -177 -440 -367 l-13 -43 -139 0 c-148 0
-182 -8 -212 -52 -21 -29 -21 -107 0 -136 30 -44 64 -52 212 -52 l139 0 13
-42 c46 -157 188 -298 349 -349 78 -24 201 -29 281 -10 71 17 178 73 234 123
57 49 119 143 147 219 l22 59 1023 2 1024 3 32 33 c28 28 33 39 33 82 0 43 -5
54 -33 82 l-32 33 -1024 3 -1023 2 -22 59 c-28 76 -90 170 -147 219 -112 99
-279 151 -424 132z m186 -260 c57 -25 115 -79 144 -137 36 -69 36 -197 0 -266
-51 -100 -146 -159 -260 -159 -117 -1 -220 64 -272 171 -32 65 -32 178 0 242
73 148 241 212 388 149z"/>
<path d="M2774 1200 c-201 -29 -378 -179 -434 -367 l-13 -43 -1014 0 c-1097 0
-1049 2 -1087 -52 -9 -12 -16 -43 -16 -68 0 -25 7 -56 16 -68 38 -54 -10 -52
1087 -52 l1014 0 13 -43 c46 -155 189 -298 349 -348 78 -24 201 -29 281 -10
71 17 178 73 234 123 57 49 119 143 147 218 l21 59 149 3 149 3 32 33 c28 28
33 39 33 82 0 43 -5 54 -33 82 l-32 33 -149 3 -149 3 -21 59 c-28 76 -91 169
-149 221 -66 58 -172 109 -262 125 -83 15 -92 15 -166 4z m203 -266 c223 -106
215 -435 -14 -536 -30 -13 -68 -20 -113 -20 -117 -1 -219 63 -271 170 -32 66
-32 179 -1 243 75 153 247 215 399 143z"/>
</g>
</svg>
