<?xml version="1.0" standalone="no"?>
<!DOCTYPE svg PUBLIC "-//W3C//DTD SVG 20010904//EN"
 "http://www.w3.org/TR/2001/REC-SVG-20010904/DTD/svg10.dtd">
<svg version="1.0" xmlns="http://www.w3.org/2000/svg"
 width="490.000000pt" height="541.000000pt" viewBox="0 0 490.000000 541.000000"
 preserveAspectRatio="xMidYMid meet">

<g transform="translate(0.000000,541.000000) scale(0.100000,-0.100000)"
fill="#000000" stroke="none">
<path d="M2372 5259 c-18 -6 -500 -360 -1072 -789 -915 -686 -1042 -785 -1067
-827 l-28 -48 0 -1575 0 -1575 28 -47 c31 -53 79 -94 134 -114 31 -11 400 -13
2079 -14 2291 0 2098 -7 2179 75 81 81 76 -52 73 1695 l-3 1555 -28 48 c-25
42 -152 141 -1067 827 -698 523 -1051 782 -1077 789 -45 13 -106 13 -151 0z
m962 -1214 l866 -650 0 -1312 0 -1313 -500 0 -500 0 0 750 0 750 -750 0 -750
0 0 -750 0 -750 -500 0 -500 0 0 1313 0 1312 868 652 c477 359 874 651 883
650 9 -1 406 -294 883 -652z"/>
</g>
</svg>
