<?xml version="1.0" standalone="no"?>
<!DOCTYPE svg PUBLIC "-//W3C//DTD SVG 20010904//EN"
 "http://www.w3.org/TR/2001/REC-SVG-20010904/DTD/svg10.dtd">
<svg version="1.0" xmlns="http://www.w3.org/2000/svg"
 width="512.000000pt" height="512.000000pt" viewBox="0 0 512.000000 512.000000"
 preserveAspectRatio="xMidYMid meet">

<g transform="translate(0.000000,512.000000) scale(0.100000,-0.100000)"
fill="#000000" stroke="none">
<path d="M3114 4676 c-43 -19 -101 -81 -115 -123 -30 -92 7 -198 88 -253 l36
-25 491 -5 c455 -5 494 -6 529 -24 51 -25 103 -88 116 -141 16 -62 16 -3028 0
-3090 -13 -53 -65 -116 -116 -141 -35 -18 -74 -19 -529 -24 l-491 -5 -39 -27
c-21 -15 -50 -44 -64 -65 -21 -31 -25 -48 -25 -113 0 -65 4 -82 25 -113 14
-21 43 -50 64 -65 l39 -27 526 0 c516 0 527 0 596 22 194 62 356 224 418 418
l22 70 0 1615 0 1615 -22 70 c-61 191 -220 352 -413 418 -63 21 -78 22 -585
24 -422 2 -526 0 -551 -11z"/>
<path d="M2060 3827 c-76 -24 -140 -120 -140 -208 1 -78 28 -111 403 -486
l361 -363 -1060 -2 -1060 -3 -37 -25 c-21 -14 -50 -43 -65 -64 -24 -35 -27
-49 -27 -116 0 -65 4 -82 25 -113 14 -21 43 -50 64 -65 l39 -27 1061 -3 1060
-2 -361 -363 c-375 -375 -402 -408 -403 -486 -1 -121 100 -222 221 -221 81 1
102 19 672 588 302 301 560 566 574 590 19 32 25 56 25 102 0 46 -6 70 -25
102 -14 24 -272 289 -574 590 -417 416 -559 552 -593 567 -49 22 -106 25 -160
8z"/>
</g>
</svg>
