<?xml version="1.0" standalone="no"?>
<!DOCTYPE svg PUBLIC "-//W3C//DTD SVG 20010904//EN"
 "http://www.w3.org/TR/2001/REC-SVG-20010904/DTD/svg10.dtd">
<svg version="1.0" xmlns="http://www.w3.org/2000/svg"
 width="526.000000pt" height="529.000000pt" viewBox="0 0 526.000000 529.000000"
 preserveAspectRatio="xMidYMid meet">
<metadata>
Created by potrace 1.16, written by Peter Selinger 2001-2019
</metadata>
<g transform="translate(0.000000,529.000000) scale(0.100000,-0.100000)"
fill="#000000" stroke="none">
<path d="M2484 5148 c-867 -41 -1669 -560 -2075 -1343 -211 -406 -300 -823
-277 -1300 41 -872 568 -1682 1354 -2083 370 -188 722 -272 1144 -272 264 0
465 27 699 95 735 212 1345 766 1631 1485 116 292 170 582 170 920 0 264 -27
465 -95 699 -188 655 -654 1219 -1261 1529 -408 208 -814 293 -1290 270z m397
-269 c496 -52 973 -283 1334 -644 356 -356 570 -790 640 -1300 24 -168 16
-513 -14 -670 -85 -444 -256 -790 -560 -1132 -64 -73 -81 -85 -81 -59 0 72
-147 385 -243 519 -207 286 -501 503 -819 604 -49 16 -88 30 -88 33 1 3 34 24
74 47 255 145 431 388 490 676 20 95 21 290 2 389 -77 402 -393 716 -796 794
-96 19 -284 19 -380 0 -441 -85 -773 -453 -808 -896 -9 -109 1 -244 24 -337
41 -165 143 -343 265 -464 64 -63 201 -162 262 -190 15 -7 27 -15 27 -18 0 -3
-39 -18 -88 -34 -259 -82 -534 -263 -715 -472 -137 -158 -264 -379 -323 -564
-15 -47 -30 -89 -34 -94 -6 -7 -86 78 -178 189 -244 297 -423 729 -472 1139
-14 116 -14 396 0 511 74 611 391 1167 870 1528 469 354 1025 508 1611 445z
m-99 -984 c153 -32 270 -97 388 -215 139 -139 208 -295 217 -495 10 -226 -60
-407 -222 -571 -90 -91 -183 -148 -310 -191 -71 -24 -96 -27 -220 -27 -120 -1
-151 2 -215 22 -136 43 -226 97 -326 197 -81 80 -98 103 -142 195 -60 125 -82
216 -82 340 0 124 22 215 82 340 44 92 61 115 142 195 116 116 242 184 397
214 70 14 218 12 291 -4z m123 -1903 c328 -71 628 -264 822 -529 72 -97 161
-268 196 -378 35 -107 59 -213 51 -226 -14 -23 -219 -150 -341 -212 -323 -164
-633 -237 -1003 -237 -370 0 -680 73 -1003 237 -119 60 -327 189 -340 210 -8
13 27 166 58 253 172 474 582 814 1080 895 121 19 358 13 480 -13z"/>
</g>
</svg>
